<svg xmlns="http://www.w3.org/2000/svg" xmlns:xlink="http://www.w3.org/1999/xlink" version="1.1" x="0px" y="0px" viewBox="0 0 100 100" enable-background="new 0 0 100 100" xml:space="preserve" style="max-width:100%" height="100%"><g style="" fill="currentColor"><rect x="-330" y="-138" width="185" height="99" style="" fill="currentColor"></rect><rect x="-138" y="-174" width="100" height="30" style="" fill="currentColor"></rect><text transform="matrix(1 0 0 1 -72 -157.5)" fill="currentColor" font-family="'HelveticaWorld-Regular'" font-size="2.4" style="">http://thenounproject.com</text><text transform="matrix(1 0 0 1 -130.834 -162.5)" fill="currentColor" font-family="'HelveticaWorld-Regular'" font-size="6.1578" style="">The Noun Project</text><text transform="matrix(1 0 0 1 -129.7139 -157.6992)" fill="currentColor" font-family="'HelveticaWorld-Regular'" font-size="4" style="">Icon Template</text><text transform="matrix(1 0 0 1 -316.5 -127.5)" fill="currentColor" font-family="'HelveticaWorld-Regular'" font-size="6.1578" style="">Reminders</text><line fill="currentColor" stroke="#FFFFFF" stroke-miterlimit="10" x1="-130" y1="-152.5" x2="-120" y2="-152.5" style=""></line><line fill="currentColor" stroke="#FFFFFF" stroke-miterlimit="10" x1="-317" y1="-121.5" x2="-300" y2="-121.5" style=""></line><g style="" fill="currentColor"><g style="" fill="currentColor"><g style="" fill="currentColor"><rect x="-308.802" y="-106.682" fill="currentColor" width="8.721" height="8.642" style=""></rect><path fill="currentColor" d="M-302.455-95.688h4.747v-4.703h-4.747V-95.688z M-297.266-95.251h-5.63v-5.579h5.63V-95.251      L-297.266-95.251z M-304.221-93.938h8.279v-8.203h-8.279V-93.938L-304.221-93.938z M-295.5-93.5h-9.163v-9.079h9.163V-93.5      L-295.5-93.5z" style=""></path><polygon fill="currentColor" points="-304.149,-93.867 -304.292,-94.009 -296.013,-102.213 -295.871,-102.071     " style=""></polygon></g></g></g><rect x="-317" y="-80" fill="none" width="35" height="32.5" style=""></rect><text transform="matrix(1 0 0 1 -317 -77.8711)" fill="currentColor" font-family="'HelveticaWorld-Regular'" font-size="3" style="">Strokes</text><text transform="matrix(1 0 0 1 -317 -72.8711)" fill="currentColor" font-family="'HelveticaWorld-Regular'" font-size="2.4" style="">Try to keep strokes at 4px</text><text transform="matrix(1 0 0 1 -317 -67.8711)" fill="currentColor" font-family="'HelveticaWorld-Regular'" font-size="2.4" style="">Minimum stroke weight is 2px</text><text transform="matrix(1 0 0 1 -317 -63.3711)" fill="currentColor" font-family="'HelveticaWorld-Regular'" font-size="2.4" style="">For thicker strokes use even </text><text transform="matrix(1 0 0 1 -317 -60.3711)" fill="currentColor" font-family="'HelveticaWorld-Regular'" font-size="2.4" style="">numbers: 6px, 8px etc.</text><text transform="matrix(1 0 0 1 -317 -55.8711)" fill="currentColor" font-family="'HelveticaWorld-Regular'" font-size="2.4" style="">Remember to expand strokes </text><text transform="matrix(1 0 0 1 -317 -52.8711)" fill="currentColor" font-family="'HelveticaWorld-Regular'" font-size="2.4" style="">before saving as an SVG </text><rect x="-274.5" y="-80" fill="none" width="35" height="32.5" style=""></rect><text transform="matrix(1 0 0 1 -274.5 -77.8711)" fill="currentColor" font-family="'HelveticaWorld-Regular'" font-size="3" style="">Size</text><text transform="matrix(1 0 0 1 -274.5 -72.8711)" fill="currentColor" font-family="'HelveticaWorld-Regular'" font-size="2.4" style="">Cannot be wider or taller than </text><text transform="matrix(1 0 0 1 -274.5 -69.3711)" fill="currentColor" font-family="'HelveticaWorld-Regular'" font-size="2.4" style="">100px (artboard size)</text><text transform="matrix(1 0 0 1 -274.5 -64.3711)" fill="currentColor" font-family="'HelveticaWorld-Regular'" font-size="2.4" style="">Scale your icon to fill as much of </text><text transform="matrix(1 0 0 1 -274.5 -61.3711)" fill="currentColor" font-family="'HelveticaWorld-Regular'" font-size="2.4" style="">the artboard as possible</text><rect x="-232" y="-80" fill="none" width="35" height="32.5" style=""></rect><text transform="matrix(1 0 0 1 -232 -77.8711)" fill="currentColor" font-family="'HelveticaWorld-Regular'" font-size="3" style="">Ungroup</text><text transform="matrix(1 0 0 1 -232 -72.8711)" fill="currentColor" font-family="'HelveticaWorld-Regular'" font-size="2.4" style="">If your design has more than one </text><text transform="matrix(1 0 0 1 -232 -69.8711)" fill="currentColor" font-family="'HelveticaWorld-Regular'" font-size="2.4" style="">shape, make sure to ungroup</text><rect x="-188" y="-80" fill="none" width="35" height="32.5" style=""></rect><text transform="matrix(1 0 0 1 -188 -77.8711)" fill="currentColor" font-family="'HelveticaWorld-Regular'" font-size="3" style="">Save as</text><text transform="matrix(1 0 0 1 -188 -72.8711)" fill="currentColor" font-family="'HelveticaWorld-Regular'" font-size="2.4" style="">Save as .SVG and make sure “Use </text><text transform="matrix(1 0 0 1 -188 -69.8711)" fill="currentColor" font-family="'HelveticaWorld-Regular'" font-size="2.4" style="">Artboards” is checked</text><text transform="matrix(1.0074 0 0 1 -263.542 -107.4063)" fill="currentColor" font-family="'HelveticaWorld-Regular'" font-size="2.5731" style="">100px</text><text transform="matrix(1.0074 0 0 1 -179 -99)" fill="currentColor" font-family="'HelveticaWorld-Regular'" font-size="5.1462" style="">.SVG</text><rect x="-264.514" y="-103.185" fill="currentColor" width="10.261" height="10.185" style=""></rect><rect x="-264.477" y="-106.234" fill="currentColor" width="0.522" height="2.337" style=""></rect><rect x="-254.813" y="-106.234" fill="currentColor" width="0.523" height="2.337" style=""></rect><rect x="-265" y="-105.663" fill="currentColor" width="11.233" height="0.572" style=""></rect><g style="" fill="currentColor"><rect x="-221.805" y="-104.156" fill="currentColor" width="10.305" height="10.156" style=""></rect><rect x="-214.809" y="-109.293" fill="currentColor" width="3.308" height="3.261" style=""></rect></g><rect x="-316.5" y="-115.5" fill="currentColor" stroke="#FFFFFF" stroke-miterlimit="10" width="30" height="30" style=""></rect><rect x="-274.5" y="-115.5" fill="currentColor" stroke="#FFFFFF" stroke-miterlimit="10" width="30" height="30" style=""></rect><rect x="-231.5" y="-115.5" fill="currentColor" stroke="#FFFFFF" stroke-miterlimit="10" width="30" height="30" style=""></rect><rect x="-187.5" y="-115.5" fill="currentColor" stroke="#FFFFFF" stroke-miterlimit="10" width="30" height="30" style=""></rect></g><g style="" fill="currentColor"><path fill="none" stroke="currentColor" stroke-width="5" stroke-miterlimit="10" d="M-299.751-68.157c0,0,9.708-30.845-15.916-10.583" style=""></path><path fill="none" stroke="currentColor" stroke-width="5" stroke-miterlimit="10" d="M-354.863-68.157c0,0-9.708-30.845,15.916-10.583" style=""></path><path fill="none" stroke="currentColor" stroke-width="5" stroke-miterlimit="10" d="M-161.751-67.157c0,0,9.708-30.845-15.916-10.583" style=""></path><path fill="none" stroke="currentColor" stroke-width="5" stroke-miterlimit="10" d="M-216.862-67.157c0,0-9.709-30.845,15.916-10.583" style=""></path><path fill="none" stroke="currentColor" stroke-width="5" stroke-miterlimit="10" d="M-22.751-66.157c0,0,9.708-30.845-15.916-10.583" style=""></path><path fill="none" stroke="currentColor" stroke-width="5" stroke-miterlimit="10" d="M-77.862-66.157c0,0-9.709-30.845,15.916-10.583" style=""></path><path fill="none" stroke="currentColor" stroke-width="5" stroke-miterlimit="10" d="M114.249-67.157c0,0,9.708-30.845-15.916-10.583" style=""></path><path fill="none" stroke="currentColor" stroke-width="5" stroke-miterlimit="10" d="M59.139-67.157c0,0-9.709-30.845,15.916-10.583" style=""></path><path fill="none" stroke="currentColor" stroke-width="5" stroke-miterlimit="10" d="M252.249-66.157c0,0,9.708-30.845-15.916-10.583" style=""></path><path fill="none" stroke="currentColor" stroke-width="5" stroke-miterlimit="10" d="M197.139-66.157c0,0-9.709-30.845,15.916-10.583" style=""></path><path fill="none" stroke="currentColor" stroke-width="5" stroke-miterlimit="10" d="M-299.751,70.842c0,0,9.708-30.845-15.916-10.582" style=""></path><path fill="none" stroke="currentColor" stroke-width="5" stroke-miterlimit="10" d="M-354.863,70.842c0,0-9.708-30.845,15.916-10.582" style=""></path><path fill="none" stroke="currentColor" stroke-width="5" stroke-miterlimit="10" d="M-161.751,71.842c0,0,9.708-30.845-15.916-10.582" style=""></path><path fill="none" stroke="currentColor" stroke-width="5" stroke-miterlimit="10" d="M-216.862,71.842c0,0-9.709-30.845,15.916-10.582" style=""></path><path fill="none" stroke="currentColor" stroke-width="5" stroke-miterlimit="10" d="M-23.751,72.842c0,0,9.708-30.845-15.916-10.582" style=""></path><path fill="none" stroke="currentColor" stroke-width="5" stroke-miterlimit="10" d="M-78.862,72.842c0,0-9.709-30.845,15.916-10.582" style=""></path><circle fill="currentColor" cx="-327.677" cy="-48.146" r="36" style=""></circle><path fill="currentColor" stroke="#FFFFFF" stroke-width="3" stroke-miterlimit="10" d="M-347.677-61.146c0,0,8,13,17,0" style=""></path><path fill="currentColor" stroke="#FFFFFF" stroke-width="3" stroke-miterlimit="10" d="M-324.677-61.146c0,0,8,13,17,0" style=""></path><path fill="currentColor" stroke="#FFFFFF" stroke-width="3" stroke-miterlimit="10" d="M-335.677-48.146c0,0,3.765,13,8,0" style=""></path><path fill="currentColor" stroke="#FFFFFF" stroke-width="3" stroke-miterlimit="10" d="M-327.677-48.146c0,0,3.765,13,8,0" style=""></path><circle fill="currentColor" cx="-189.677" cy="-47.146" r="36" style=""></circle><path fill="currentColor" stroke="#FFFFFF" stroke-width="3" stroke-miterlimit="10" d="M-186.677-60.146c0,0,8,13,17,0" style=""></path><path fill="currentColor" stroke="#FFFFFF" stroke-width="3" stroke-miterlimit="10" d="M-197.677-47.146c0,0,3.765,13,8,0" style=""></path><path fill="currentColor" stroke="#FFFFFF" stroke-width="3" stroke-miterlimit="10" d="M-189.677-47.146c0,0,3.765,13,8,0" style=""></path><path fill="currentColor" stroke="#FFFFFF" stroke-miterlimit="10" d="M-193.677-41.146c0,0,3.765,13,8,0" style=""></path><ellipse stroke="#FFFFFF" stroke-width="3" stroke-miterlimit="10" cx="-202.467" cy="-62.146" rx="8.79" ry="8" fill="currentColor" style=""></ellipse><circle fill="currentColor" cx="-50.677" cy="-46.146" r="36" style=""></circle><path fill="currentColor" stroke="#FFFFFF" stroke-width="3" stroke-miterlimit="10" d="M-58.677-46.146c0,0,3.765,13,8,0" style=""></path><path fill="currentColor" stroke="#FFFFFF" stroke-width="3" stroke-miterlimit="10" d="M-50.677-46.146c0,0,3.765,13,8,0" style=""></path><path fill="currentColor" stroke="#FFFFFF" stroke-miterlimit="10" d="M-54.677-40.146c0,0,3.765,13,8,0" style=""></path><ellipse stroke="#FFFFFF" stroke-width="3" stroke-miterlimit="10" cx="-63.467" cy="-61.146" rx="8.79" ry="8" fill="currentColor" style=""></ellipse><ellipse stroke="#FFFFFF" stroke-width="3" stroke-miterlimit="10" cx="-38.467" cy="-61.146" rx="8.79" ry="8" fill="currentColor" style=""></ellipse><line fill="currentColor" stroke="#FFFFFF" stroke-width="2" stroke-miterlimit="10" x1="-315.677" y1="-49.146" x2="-301.677" y2="-51.146" style=""></line><line fill="currentColor" stroke="#FFFFFF" stroke-width="2" stroke-miterlimit="10" x1="-315.677" y1="-45.146" x2="-301.677" y2="-44.146" style=""></line><line fill="currentColor" stroke="#FFFFFF" stroke-width="2" stroke-miterlimit="10" x1="-339.677" y1="-49.146" x2="-353.677" y2="-51.146" style=""></line><line fill="currentColor" stroke="#FFFFFF" stroke-width="2" stroke-miterlimit="10" x1="-339.677" y1="-45.146" x2="-353.677" y2="-44.146" style=""></line><line fill="currentColor" stroke="#FFFFFF" stroke-width="2" stroke-miterlimit="10" x1="-177.677" y1="-48.146" x2="-163.677" y2="-50.146" style=""></line><line fill="currentColor" stroke="#FFFFFF" stroke-width="2" stroke-miterlimit="10" x1="-177.677" y1="-44.146" x2="-163.677" y2="-43.146" style=""></line><line fill="currentColor" stroke="#FFFFFF" stroke-width="2" stroke-miterlimit="10" x1="-201.677" y1="-48.146" x2="-215.677" y2="-50.146" style=""></line><line fill="currentColor" stroke="#FFFFFF" stroke-width="2" stroke-miterlimit="10" x1="-201.677" y1="-44.146" x2="-215.677" y2="-43.146" style=""></line><line fill="currentColor" stroke="#FFFFFF" stroke-width="2" stroke-miterlimit="10" x1="-38.677" y1="-47.146" x2="-24.677" y2="-49.146" style=""></line><line fill="currentColor" stroke="#FFFFFF" stroke-width="2" stroke-miterlimit="10" x1="-38.677" y1="-43.146" x2="-24.677" y2="-42.146" style=""></line><line fill="currentColor" stroke="#FFFFFF" stroke-width="2" stroke-miterlimit="10" x1="-62.677" y1="-47.146" x2="-76.677" y2="-49.146" style=""></line><line fill="currentColor" stroke="#FFFFFF" stroke-width="2" stroke-miterlimit="10" x1="-62.677" y1="-43.146" x2="-76.677" y2="-42.146" style=""></line><circle fill="currentColor" stroke="#FFFFFF" stroke-width="3" stroke-miterlimit="10" cx="-201.677" cy="-61.146" r="1" style=""></circle><circle fill="currentColor" cx="86.323" cy="-47.146" r="36" style=""></circle><path fill="currentColor" stroke="#FFFFFF" stroke-width="3" stroke-miterlimit="10" d="M78.323-47.146c0,0,3.766,13,8,0" style=""></path><path fill="currentColor" stroke="#FFFFFF" stroke-width="3" stroke-miterlimit="10" d="M86.323-47.146c0,0,3.766,13,8,0" style=""></path><ellipse stroke="#FFFFFF" stroke-width="3" stroke-miterlimit="10" cx="73.533" cy="-62.146" rx="8.79" ry="8" fill="currentColor" style=""></ellipse><ellipse stroke="#FFFFFF" stroke-width="3" stroke-miterlimit="10" cx="98.533" cy="-62.146" rx="8.79" ry="8" fill="currentColor" style=""></ellipse><line fill="currentColor" stroke="#FFFFFF" stroke-width="2" stroke-miterlimit="10" x1="98.323" y1="-48.146" x2="112.323" y2="-50.146" style=""></line><line fill="currentColor" stroke="#FFFFFF" stroke-width="2" stroke-miterlimit="10" x1="98.323" y1="-44.146" x2="112.323" y2="-43.146" style=""></line><line fill="currentColor" stroke="#FFFFFF" stroke-width="2" stroke-miterlimit="10" x1="74.323" y1="-48.146" x2="60.323" y2="-50.146" style=""></line><line fill="currentColor" stroke="#FFFFFF" stroke-width="2" stroke-miterlimit="10" x1="74.323" y1="-44.146" x2="60.323" y2="-43.146" style=""></line><path fill="currentColor" stroke="#FFFFFF" stroke-miterlimit="10" d="M82.323-41.146c0,0,3.766,33.25,8,0" style=""></path><line fill="none" stroke="currentColor" stroke-width="2" stroke-miterlimit="10" x1="-324.7" y1="-90.84" x2="-318.793" y2="-95.164" style=""></line><line fill="none" stroke="currentColor" stroke-width="2" stroke-miterlimit="10" x1="-319.642" y1="-94.105" x2="-320.712" y2="-87.188" style=""></line><line fill="none" stroke="currentColor" stroke-width="2" stroke-miterlimit="10" x1="-321.36" y1="-86.275" x2="-315.653" y2="-90.452" style=""></line><line fill="none" stroke="currentColor" stroke-width="2" stroke-miterlimit="10" x1="-313.616" y1="-93.383" x2="-308.537" y2="-97.101" style=""></line><line fill="none" stroke="currentColor" stroke-width="2" stroke-miterlimit="10" x1="-309.114" y1="-96.289" x2="-310.065" y2="-90.131" style=""></line><line fill="none" stroke="currentColor" stroke-width="2" stroke-miterlimit="10" x1="-310.643" y1="-89.319" x2="-305.563" y2="-93.037" style=""></line><line fill="none" stroke="currentColor" stroke-width="2" stroke-miterlimit="10" x1="-302.52" y1="-94.009" x2="-298.163" y2="-97.198" style=""></line><line fill="none" stroke="currentColor" stroke-width="2" stroke-miterlimit="10" x1="-298.657" y1="-96.501" x2="-299.475" y2="-91.221" style=""></line><line fill="none" stroke="currentColor" stroke-width="2" stroke-miterlimit="10" x1="-299.969" y1="-90.524" x2="-295.614" y2="-93.713" style=""></line><circle fill="currentColor" cx="224.323" cy="-46.146" r="36" style=""></circle><path fill="currentColor" stroke="#FFFFFF" stroke-width="3" stroke-miterlimit="10" d="M216.323-46.146c0,0,3.766,13,8,0" style=""></path><path fill="currentColor" stroke="#FFFFFF" stroke-width="3" stroke-miterlimit="10" d="M224.323-46.146c0,0,3.766,13,8,0" style=""></path><ellipse stroke="#FFFFFF" stroke-width="3" stroke-miterlimit="10" cx="211.533" cy="-61.146" rx="8.79" ry="8" fill="currentColor" style=""></ellipse><ellipse stroke="#FFFFFF" stroke-width="3" stroke-miterlimit="10" cx="236.533" cy="-61.146" rx="8.79" ry="8" fill="currentColor" style=""></ellipse><line fill="currentColor" stroke="#FFFFFF" stroke-width="2" stroke-miterlimit="10" x1="236.323" y1="-47.146" x2="250.323" y2="-49.146" style=""></line><line fill="currentColor" stroke="#FFFFFF" stroke-width="2" stroke-miterlimit="10" x1="236.323" y1="-43.146" x2="250.323" y2="-42.146" style=""></line><line fill="currentColor" stroke="#FFFFFF" stroke-width="2" stroke-miterlimit="10" x1="212.323" y1="-47.146" x2="198.323" y2="-49.146" style=""></line><line fill="currentColor" stroke="#FFFFFF" stroke-width="2" stroke-miterlimit="10" x1="212.323" y1="-43.146" x2="198.323" y2="-42.146" style=""></line><circle fill="currentColor" stroke="#FFFFFF" stroke-miterlimit="10" cx="224.323" cy="-39.146" r="3" style=""></circle><circle fill="currentColor" cx="-327.677" cy="90.854" r="36" style=""></circle><ellipse stroke="#FFFFFF" stroke-width="3" stroke-miterlimit="10" cx="-340.467" cy="79.854" rx="8.79" ry="8" fill="currentColor" style=""></ellipse><ellipse stroke="#FFFFFF" stroke-width="3" stroke-miterlimit="10" cx="-315.467" cy="79.854" rx="8.79" ry="8" fill="currentColor" style=""></ellipse><circle fill="currentColor" cx="-189.677" cy="91.854" r="36" style=""></circle><ellipse transform="matrix(0.8287 0.5597 -0.5597 0.8287 8.7386 126.5777)" stroke="#FFFFFF" stroke-width="3" stroke-miterlimit="10" cx="-202.412" cy="77.564" rx="8.79" ry="8" fill="currentColor" style=""></ellipse><path fill="currentColor" stroke="#FFFFFF" stroke-width="3" stroke-miterlimit="10" d="M-197.677,91.854c0,0,3.765,13,8,0" style=""></path><path fill="currentColor" stroke="#FFFFFF" stroke-width="3" stroke-miterlimit="10" d="M-189.677,91.854c0,0,3.765,13,8,0" style=""></path><polygon fill="currentColor" stroke="#FFFFFF" stroke-width="3" stroke-miterlimit="10" points="-189.677,92.553 -189.677,92.553    -191.677,89.354 -187.677,89.354  " style=""></polygon><line fill="currentColor" stroke="#FFFFFF" stroke-width="2" stroke-miterlimit="10" x1="-177.677" y1="90.854" x2="-163.677" y2="88.854" style=""></line><line fill="currentColor" stroke="#FFFFFF" stroke-width="2" stroke-miterlimit="10" x1="-177.677" y1="94.854" x2="-163.677" y2="95.854" style=""></line><line fill="currentColor" stroke="#FFFFFF" stroke-width="2" stroke-miterlimit="10" x1="-201.677" y1="90.854" x2="-215.677" y2="88.854" style=""></line><line fill="currentColor" stroke="#FFFFFF" stroke-width="2" stroke-miterlimit="10" x1="-201.677" y1="94.854" x2="-215.677" y2="95.854" style=""></line><ellipse transform="matrix(-0.8287 0.5597 -0.5597 -0.8287 -281.1133 241.1707)" stroke="#FFFFFF" stroke-width="3" stroke-miterlimit="10" cx="-177.465" cy="77.564" rx="8.79" ry="8.001" fill="currentColor" style=""></ellipse><polygon fill="currentColor" points="-192.927,101.854 -192.927,101.854 -194.677,97.854 -191.677,98.104  " style=""></polygon><polygon fill="currentColor" points="-186.427,101.854 -186.427,101.854 -184.677,97.854 -187.677,98.104  " style=""></polygon><circle fill="currentColor" cx="-51.677" cy="92.854" r="36" style=""></circle><path fill="currentColor" stroke="#FFFFFF" stroke-width="3" stroke-miterlimit="10" d="M-59.677,92.854c0,0,3.765,13,8,0" style=""></path><path fill="currentColor" stroke="#FFFFFF" stroke-width="3" stroke-miterlimit="10" d="M-51.677,92.854c0,0,3.765,13,8,0" style=""></path><line fill="currentColor" stroke="#FFFFFF" stroke-width="2" stroke-miterlimit="10" x1="-39.677" y1="91.854" x2="-25.677" y2="89.854" style=""></line><line fill="currentColor" stroke="#FFFFFF" stroke-width="2" stroke-miterlimit="10" x1="-39.677" y1="95.854" x2="-25.677" y2="96.854" style=""></line><line fill="currentColor" stroke="#FFFFFF" stroke-width="2" stroke-miterlimit="10" x1="-63.677" y1="91.854" x2="-77.677" y2="89.854" style=""></line><line fill="currentColor" stroke="#FFFFFF" stroke-width="2" stroke-miterlimit="10" x1="-63.677" y1="95.854" x2="-77.677" y2="96.854" style=""></line><line fill="currentColor" stroke="#FFFFFF" stroke-width="3" stroke-miterlimit="10" x1="-70.677" y1="71.854" x2="-55.677" y2="81.854" style=""></line><line fill="currentColor" stroke="#FFFFFF" stroke-width="3" stroke-miterlimit="10" x1="-69.677" y1="83.854" x2="-56.677" y2="69.854" style=""></line><line fill="currentColor" stroke="#FFFFFF" stroke-width="3" stroke-miterlimit="10" x1="-32.677" y1="71.854" x2="-47.677" y2="81.854" style=""></line><line fill="currentColor" stroke="#FFFFFF" stroke-width="3" stroke-miterlimit="10" x1="-33.677" y1="83.854" x2="-46.677" y2="69.854" style=""></line><ellipse transform="matrix(-0.9998 0.0214 -0.0214 -0.9998 -100.9491 198.6806)" fill="currentColor" stroke="#FFFFFF" stroke-miterlimit="10" cx="-51.538" cy="98.8" rx="2.873" ry="3.152" style=""></ellipse><polygon fill="currentColor" stroke="#FFFFFF" stroke-width="3" stroke-miterlimit="10" points="-51.677,93.553 -51.677,93.553    -53.677,90.354 -49.677,90.354  " style=""></polygon><polygon fill="currentColor" stroke="#FFFFFF" stroke-width="3" stroke-miterlimit="10" points="-327.677,-47.447 -327.677,-47.447    -329.677,-50.646 -325.677,-50.646  " style=""></polygon><polygon fill="currentColor" stroke="#FFFFFF" stroke-width="3" stroke-miterlimit="10" points="-189.677,-46.447 -189.677,-46.447    -191.677,-49.646 -187.677,-49.646  " style=""></polygon><polygon fill="currentColor" stroke="#FFFFFF" stroke-width="3" stroke-miterlimit="10" points="-50.677,-45.447 -50.677,-45.447    -52.677,-48.646 -48.677,-48.646  " style=""></polygon><polygon fill="currentColor" stroke="#FFFFFF" stroke-width="3" stroke-miterlimit="10" points="86.323,-47.447 86.323,-47.447    84.323,-50.646 88.323,-50.646  " style=""></polygon><polygon fill="currentColor" stroke="#FFFFFF" stroke-width="3" stroke-miterlimit="10" points="224.323,-45.447 224.323,-45.447    222.323,-48.646 226.323,-48.646  " style=""></polygon><circle fill="currentColor" stroke="#FFFFFF" stroke-width="3" stroke-miterlimit="10" cx="-57.677" cy="-61.146" r="1" style=""></circle><circle fill="currentColor" stroke="#FFFFFF" stroke-width="3" stroke-miterlimit="10" cx="-44.677" cy="-61.146" r="1" style=""></circle><circle fill="currentColor" stroke="#FFFFFF" stroke-width="3" stroke-miterlimit="10" cx="67.323" cy="-64.146" r="1" style=""></circle><circle fill="currentColor" stroke="#FFFFFF" stroke-width="3" stroke-miterlimit="10" cx="102.323" cy="-58.146" r="1" style=""></circle><circle fill="currentColor" stroke="#FFFFFF" stroke-width="3" stroke-miterlimit="10" cx="211.323" cy="-62.146" r="1" style=""></circle><circle fill="currentColor" stroke="#FFFFFF" stroke-width="3" stroke-miterlimit="10" cx="236.323" cy="-62.146" r="1" style=""></circle><rect x="200.323" y="-71.146" width="22" height="10" style="" fill="currentColor"></rect><rect x="225.323" y="-71.146" width="22" height="10" style="" fill="currentColor"></rect><circle fill="currentColor" stroke="#FFFFFF" stroke-width="3" stroke-miterlimit="10" cx="-315.677" cy="79.854" r="1" style=""></circle><circle fill="currentColor" stroke="#FFFFFF" stroke-width="3" stroke-miterlimit="10" cx="-340.677" cy="79.854" r="1" style=""></circle><rect x="-327.677" y="83.854" fill="none" stroke="currentColor" stroke-width="6" stroke-miterlimit="10" width="22" height="5" style=""></rect><line fill="currentColor" stroke="#FFFFFF" stroke-width="2" stroke-miterlimit="10" x1="-315.677" y1="89.854" x2="-301.677" y2="87.854" style=""></line><line fill="currentColor" stroke="#FFFFFF" stroke-width="2" stroke-miterlimit="10" x1="-315.677" y1="93.854" x2="-301.677" y2="94.854" style=""></line><rect x="-353.677" y="83.854" fill="none" stroke="currentColor" stroke-width="6" stroke-miterlimit="10" width="22" height="5" style=""></rect><path fill="currentColor" stroke="#FFFFFF" stroke-width="3" stroke-miterlimit="10" d="M-335.677,90.854c0,0,3.765,13,8,0" style=""></path><path fill="currentColor" stroke="#FFFFFF" stroke-width="3" stroke-miterlimit="10" d="M-327.677,90.854c0,0,3.765,13,8,0" style=""></path><line fill="currentColor" stroke="#FFFFFF" stroke-width="2" stroke-miterlimit="10" x1="-339.677" y1="89.854" x2="-353.677" y2="87.854" style=""></line><line fill="currentColor" stroke="#FFFFFF" stroke-width="2" stroke-miterlimit="10" x1="-339.677" y1="93.854" x2="-353.677" y2="94.854" style=""></line><polygon fill="currentColor" stroke="#FFFFFF" stroke-width="3" stroke-miterlimit="10" points="-327.677,91.553 -327.677,91.553    -329.677,88.354 -325.677,88.354  " style=""></polygon><circle fill="currentColor" stroke="#FFFFFF" stroke-width="3" stroke-miterlimit="10" cx="-201.677" cy="77.854" r="1" style=""></circle><circle fill="currentColor" stroke="#FFFFFF" stroke-width="3" stroke-miterlimit="10" cx="-178.677" cy="77.854" r="1" style=""></circle><polygon fill="none" stroke="currentColor" stroke-width="7" stroke-miterlimit="10" points="-173.222,68.551 -188.705,81.525    -191.72,75.129 -176.237,62.154  " style=""></polygon><polygon fill="none" stroke="currentColor" stroke-width="7" stroke-miterlimit="10" points="-206.72,68.551 -191.237,81.525    -188.222,75.129 -203.705,62.154  " style=""></polygon></g><path fill="currentColor" d="M160.109,34.993c10.118,14.447,14.525,23.905,5.191,30.655c-11.644,8.42-17.268-0.666-27.385-15.113  c-10.117-14.448-13.699-40.228-12.369-41.602C126.467,7.981,149.992,20.545,160.109,34.993z" style=""></path><circle fill="currentColor" stroke="#FFFFFF" stroke-width="2" stroke-miterlimit="10" cx="141.01" cy="31.74" r="4.954" style=""></circle><path fill="none" stroke="currentColor" stroke-width="3" stroke-miterlimit="10" d="M186.889,62.927  c0.357,4.565-8.299-1.817-13.199-1.434c-4.9,0.385-3.251-3.037-4.276-6.664c-1.15-4.069,0.873-8.467,6.256-7.333  C180.479,48.509,186.53,58.36,186.889,62.927z" style=""></path><path fill="none" stroke="currentColor" stroke-width="3" stroke-miterlimit="10" d="M153.827,85.74  c4.148,1.943,1.325-8.631,3.474-13.221c2.148-4.588-1.659-4.194-4.684-6.451c-3.394-2.532-8.252-2.12-9.154,3.463  C142.656,74.522,149.68,83.799,153.827,85.74z" style=""></path><path fill="none" stroke="currentColor" stroke-width="2" stroke-miterlimit="10" d="M172.634,65.564" style=""></path><path fill="none" stroke="currentColor" stroke-width="2" stroke-miterlimit="10" d="M162.16,71.939" style=""></path><path fill="none" stroke="currentColor" stroke-width="2" stroke-miterlimit="10" d="M162.409,70.084  c-1.859,18.61,21.728,19.429,26.29,29.762" style=""></path><path fill="none" stroke="currentColor" stroke-width="2" stroke-miterlimit="10" d="M172.681,78.812" style=""></path><path fill="none" stroke="currentColor" stroke-width="2" stroke-miterlimit="10" d="M181.07,79.611" style=""></path><path fill="none" stroke="currentColor" stroke-width="2" stroke-miterlimit="10" d="M170.261,65.886  c8.796,0.879,24.638,9.706,18.525,33.089" style=""></path><path fill="none" stroke="currentColor" stroke-width="2" stroke-miterlimit="10" d="M166.242,70.622  c-0.919,9.198,10.739,9.603,12.994,14.711" style=""></path><path fill="none" stroke="currentColor" stroke-width="2" stroke-miterlimit="10" d="M170.123,68.546  c4.348,0.435,12.178,4.798,9.156,16.356" style=""></path><circle fill="currentColor" stroke="#FFFFFF" stroke-width="2" stroke-miterlimit="10" cx="148.606" cy="42.275" r="3.393" style=""></circle><circle fill="currentColor" stroke="#FFFFFF" stroke-width="2" stroke-miterlimit="10" cx="154.606" cy="51.341" r="3.393" style=""></circle><ellipse transform="matrix(0.9559 -0.2937 0.2937 0.9559 4.2556 11.2121)" fill="none" stroke="currentColor" stroke-width="2" stroke-miterlimit="10" cx="39.457" cy="-8.562" rx="2.459" ry="3.875" style=""></ellipse><path fill="none" stroke="currentColor" stroke-width="3" stroke-miterlimit="10" d="M122.681,120.64  c7.5-13.928-23.566-24.286,2.6-24.286c56.52,0,141.625,574.407-45.693,25.455" style=""></path><path fill="none" stroke="currentColor" stroke-width="3" stroke-miterlimit="10" d="M79.848,106.712c-1.29,0,6.833,8.593-2.334,19.601" style=""></path><path fill="none" stroke="currentColor" stroke-width="3" stroke-miterlimit="10" d="M123.378,106.712c1.187,0-6.29,8.593,2.146,19.601" style=""></path><path fill="none" stroke="currentColor" stroke-width="3" stroke-miterlimit="10" d="M77.514,125.472c-1.19,14.579,15,8.5,13.512,17.5" style=""></path><path fill="none" stroke="currentColor" stroke-width="3" stroke-miterlimit="10" d="M125.463,125.472  c1.162,14.578-14.626,8.5-13.174,17.5" style=""></path><path fill="none" stroke="currentColor" stroke-width="3" stroke-miterlimit="10" d="M81.941,135.847c0,32.875,39.509,30.979,37.93,0" style=""></path><ellipse transform="matrix(0.9447 -0.328 0.328 0.9447 -35.118 36.3646)" fill="none" stroke="currentColor" stroke-width="3" stroke-miterlimit="10" cx="90.24" cy="122.286" rx="7.125" ry="5.252" style=""></ellipse><ellipse transform="matrix(0.9755 0.2201 -0.2201 0.9755 29.5883 -21.9376)" fill="none" stroke="currentColor" stroke-width="3" stroke-miterlimit="10" cx="113.24" cy="121.81" rx="7.125" ry="5.25" style=""></ellipse><path fill="none" stroke="currentColor" stroke-width="3" stroke-miterlimit="10" d="M102.556,127.771c0,4.879,1.229,8.826,2.75,8.826" style=""></path><path fill="none" stroke="currentColor" stroke-width="3" stroke-miterlimit="10" d="M100.314,127.771c0,4.879-1.398,8.826-3.125,8.826" style=""></path><path fill="none" stroke="currentColor" stroke-miterlimit="10" d="M90.24,142.972c0,0,10.074,1.854,22.049,0" style=""></path><path fill="none" stroke="currentColor" stroke-miterlimit="10" d="M90.24,142.972" style=""></path><path fill="none" stroke="currentColor" stroke-miterlimit="10" d="M112.468,147.41" style=""></path><path fill="none" stroke="currentColor" stroke-miterlimit="10" d="M90.24,142.659c-2.185,9.813,23.007,11.5,22.51,0" style=""></path><line fill="none" stroke="currentColor" stroke-miterlimit="10" x1="101.443" y1="150.826" x2="101.428" y2="144.159" style=""></line><line fill="none" stroke="currentColor" stroke-miterlimit="10" x1="103.493" y1="143.796" x2="105.306" y2="150.222" style=""></line><line fill="none" stroke="currentColor" stroke-miterlimit="10" x1="105.056" y1="143.796" x2="106.681" y2="147.009" style=""></line><path fill="none" stroke="currentColor" stroke-miterlimit="10" d="M90.515,145.768c9.104,3.767,22.235,0.767,21.774-1.608" style=""></path><line fill="none" stroke="currentColor" stroke-miterlimit="10" x1="98.573" y1="147.493" x2="98.752" y2="144.159" style=""></line><line fill="none" stroke="currentColor" stroke-miterlimit="10" x1="96.618" y1="147.009" x2="97.189" y2="143.796" style=""></line><line fill="none" stroke="currentColor" stroke-miterlimit="10" x1="94.993" y1="146.745" x2="95.181" y2="143.796" style=""></line><line fill="none" stroke="currentColor" stroke-miterlimit="10" x1="93.868" y1="146.745" x2="93.806" y2="143.796" style=""></line><line fill="none" stroke="currentColor" stroke-miterlimit="10" x1="92.618" y1="146.27" x2="92.618" y2="143.796" style=""></line><line fill="none" stroke="currentColor" stroke-miterlimit="10" x1="91.479" y1="146.136" x2="91.479" y2="142.972" style=""></line><line fill="none" stroke="currentColor" stroke-miterlimit="10" x1="108.285" y1="146.631" x2="107.681" y2="143.796" style=""></line><line fill="none" stroke="currentColor" stroke-miterlimit="10" x1="109.493" y1="145.856" x2="109.056" y2="143.796" style=""></line><line fill="none" stroke="currentColor" stroke-miterlimit="10" x1="110.615" y1="145.826" x2="110.118" y2="143.384" style=""></line><line fill="none" stroke="currentColor" stroke-miterlimit="10" x1="111.806" y1="144.604" x2="111.556" y2="143.384" style=""></line><line fill="none" stroke="currentColor" stroke-miterlimit="10" x1="106.681" y1="150.169" x2="106.681" y2="147.41" style=""></line><line fill="none" stroke="currentColor" stroke-miterlimit="10" x1="108.285" y1="146.631" x2="108.285" y2="149.159" style=""></line><line fill="none" stroke="currentColor" stroke-miterlimit="10" x1="109.493" y1="146.27" x2="109.493" y2="148.409" style=""></line><line fill="none" stroke="currentColor" stroke-miterlimit="10" x1="110.615" y1="145.826" x2="111.155" y2="147.554" style=""></line><line fill="none" stroke="currentColor" stroke-miterlimit="10" x1="103.056" y1="150.831" x2="103.118" y2="147.896" style=""></line><line fill="none" stroke="currentColor" stroke-miterlimit="10" x1="99.786" y1="150.725" x2="99.743" y2="147.822" style=""></line><line fill="none" stroke="currentColor" stroke-miterlimit="10" x1="98.056" y1="150.222" x2="97.931" y2="147.896" style=""></line><line fill="none" stroke="currentColor" stroke-miterlimit="10" x1="96.289" y1="150.028" x2="96.306" y2="147.554" style=""></line><line fill="none" stroke="currentColor" stroke-miterlimit="10" x1="94.993" y1="149.059" x2="94.993" y2="147.41" style=""></line><line fill="none" stroke="currentColor" stroke-miterlimit="10" x1="93.868" y1="148.791" x2="93.868" y2="146.745" style=""></line><line fill="none" stroke="currentColor" stroke-miterlimit="10" x1="92.618" y1="147.896" x2="92.618" y2="146.745" style=""></line><ellipse fill="currentColor" cx="113.24" cy="121.862" rx="6.75" ry="5.909" style=""></ellipse><ellipse fill="currentColor" cx="90.105" cy="121.862" rx="6.75" ry="5.909" style=""></ellipse><polygon fill="currentColor" points="36.763,74.754 44.25,47.315 36.763,19.876 36.763,19.876 84.287,47.315 36.763,74.754 " style=""></polygon></svg>
